<?xml version="1.0" standalone="no"?>
<!DOCTYPE svg PUBLIC "-//W3C//DTD SVG 20010904//EN"
 "http://www.w3.org/TR/2001/REC-SVG-20010904/DTD/svg10.dtd">
<svg version="1.0" xmlns="http://www.w3.org/2000/svg"
 width="700.000000pt" height="700.000000pt" viewBox="0 0 700.000000 700.000000"
 preserveAspectRatio="xMidYMid meet">
<metadata>
Created by potrace 1.11, written by Peter Selinger 2001-2013
</metadata>
<g transform="translate(0.000000,700.000000) scale(0.100000,-0.100000)"
fill="#000000" stroke="none">
<path d="M6114 5614 c-32 -25 -79 -56 -104 -69 -55 -28 -193 -62 -280 -70 -36
-4 -72 -9 -80 -11 -25 -8 -798 -14 -2710 -19 -1947 -6 -2135 -8 -2162 -19 -9
-4 -23 -22 -31 -39 -14 -29 -19 -58 -32 -182 -8 -69 -16 -577 -10 -593 4 -11
24 5 74 59 83 91 184 144 306 163 22 4 54 9 70 11 135 22 298 24 2410 30 2072
5 2277 8 2410 30 17 3 36 6 43 7 7 1 31 17 53 37 34 31 41 45 54 106 18 91 23
126 30 210 3 39 8 81 10 95 7 40 18 300 13 300 -2 0 -31 -21 -64 -46z"/>
<path d="M2518 4565 c-1 -1 -64 -6 -138 -9 -139 -6 -189 -14 -227 -35 -26 -13
-25 -17 28 -116 41 -76 64 -150 75 -235 4 -30 8 -66 10 -80 19 -154 27 -803
11 -947 -18 -164 -35 -289 -57 -423 -11 -63 -22 -133 -26 -155 -3 -22 -15 -87
-26 -145 -11 -58 -22 -116 -24 -130 -16 -86 -78 -346 -97 -405 -48 -145 -131
-265 -213 -308 -40 -21 -121 -35 -173 -30 -145 14 -244 138 -243 303 1 64 18
95 87 154 49 43 55 51 39 57 -18 6 -30 6 -124 -6 -225 -28 -552 -104 -647
-150 -43 -22 -54 -32 -66 -68 -8 -23 -13 -49 -12 -57 1 -8 5 -40 9 -70 6 -54
26 -123 39 -136 4 -4 7 -14 7 -23 0 -9 16 -47 36 -86 75 -147 189 -267 329
-342 41 -21 215 -86 215 -79 0 2 22 -2 48 -9 71 -18 369 -19 462 -1 434 84
764 379 909 814 40 120 97 371 126 552 3 19 7 46 10 60 2 14 7 45 10 70 3 25
8 52 10 60 2 8 7 38 10 65 3 28 10 75 15 105 9 53 14 85 25 195 3 28 8 66 10
85 4 34 12 111 20 207 26 312 26 1086 0 1208 -14 64 -101 92 -317 101 -68 3
-128 7 -135 9 -6 2 -13 2 -15 0z"/>
<path d="M4627 4554 c-1 -1 -72 -4 -157 -8 -85 -3 -168 -8 -185 -10 -85 -10
-133 -20 -156 -32 -29 -14 -35 -34 -64 -194 -8 -47 -17 -98 -20 -115 -5 -27
-14 -75 -29 -160 -3 -16 -17 -97 -30 -180 -14 -82 -28 -159 -30 -170 -8 -43
-22 -136 -31 -214 -4 -30 -8 -61 -10 -70 -1 -9 -6 -59 -10 -111 -4 -52 -9
-103 -10 -112 -4 -20 -14 -218 -21 -393 -2 -66 -4 -336 -5 -600 -1 -557 -1
-557 71 -592 35 -18 71 -24 160 -30 216 -12 478 -6 556 13 31 8 30 13 -6 115
-36 97 -63 204 -80 305 -12 74 -13 92 -26 294 -13 221 -7 733 11 890 2 19 6
66 10 103 3 37 8 76 9 85 2 9 7 44 10 77 6 51 37 236 50 300 2 11 16 81 30
155 15 74 28 144 30 155 4 19 10 45 38 165 34 149 49 182 117 252 30 32 52 61
48 64 -4 4 -42 9 -84 11 -43 2 -102 5 -131 6 -29 2 -53 2 -55 1z"/>
</g>
</svg>
