<?xml version="1.0" standalone="no"?>
<!DOCTYPE svg PUBLIC "-//W3C//DTD SVG 20010904//EN"
 "http://www.w3.org/TR/2001/REC-SVG-20010904/DTD/svg10.dtd">
<svg version="1.0" xmlns="http://www.w3.org/2000/svg"
 width="700.000000pt" height="700.000000pt" viewBox="0 0 700.000000 700.000000"
 preserveAspectRatio="xMidYMid meet">
<metadata>
Created by potrace 1.14, written by Peter Selinger 2001-2017
</metadata>
<g transform="translate(0.000000,700.000000) scale(0.100000,-0.100000)"
fill="#000000" stroke="none">
<path d="M6144 5638 c-10 -11 -49 -40 -85 -64 -70 -46 -194 -85 -314 -99 -33
-4 -73 -9 -90 -11 -63 -9 -751 -13 -2715 -19 -1119 -4 -2061 -7 -2092 -7 -122
-1 -132 -37 -144 -544 -5 -192 -3 -283 4 -288 6 -3 25 13 44 36 88 113 178
163 343 193 191 34 187 34 2450 40 2517 7 2446 5 2525 71 38 32 55 72 65 149
4 33 9 68 11 79 2 11 6 52 10 91 3 38 7 81 10 95 10 65 16 300 7 300 -5 0 -18
-10 -29 -22z"/>
<path d="M2477 4564 c-1 -1 -54 -5 -117 -8 -149 -8 -209 -20 -223 -43 -3 -5
14 -47 38 -94 47 -93 72 -167 81 -244 3 -27 7 -63 10 -80 27 -204 27 -866 -1
-1060 -3 -16 -7 -48 -9 -70 -3 -22 -8 -60 -11 -85 -8 -64 -74 -457 -85 -505
-5 -22 -12 -56 -15 -75 -6 -35 -43 -210 -51 -242 -2 -10 -6 -27 -9 -38 -3 -11
-7 -28 -9 -38 -14 -60 -22 -84 -47 -148 -66 -168 -156 -260 -275 -282 -180
-32 -310 68 -333 254 -9 79 5 128 51 168 74 63 88 78 83 86 -21 34 -668 -95
-792 -158 -71 -36 -84 -121 -42 -269 81 -291 269 -485 553 -572 105 -32 110
-33 295 -38 197 -6 277 3 415 49 428 140 698 456 818 958 23 98 21 85 53 260
35 190 35 191 41 235 3 22 9 63 14 90 8 43 14 83 35 240 1 11 5 49 9 85 4 36
9 72 11 80 2 8 7 53 10 100 3 47 8 99 10 115 19 158 26 799 12 1082 -8 181
-18 197 -137 222 -48 11 -376 31 -383 25z"/>
<path d="M4597 4554 c-1 -1 -65 -4 -142 -8 -77 -3 -154 -8 -170 -10 -17 -3
-52 -7 -79 -10 -93 -11 -112 -34 -131 -154 -11 -72 -27 -162 -44 -247 -5 -27
-12 -70 -16 -95 -3 -25 -13 -76 -20 -115 -16 -78 -51 -293 -60 -370 -4 -27 -8
-62 -11 -76 -6 -39 -12 -95 -19 -169 -3 -36 -8 -90 -10 -120 -17 -178 -27
-546 -28 -1009 -1 -411 3 -504 24 -543 28 -52 150 -71 454 -71 240 0 335 11
335 39 0 7 -14 51 -30 96 -87 236 -114 465 -114 948 0 198 9 463 18 535 2 17
7 66 11 109 4 43 8 86 10 95 1 9 6 41 10 71 14 114 43 273 109 606 4 20 11 51
46 199 29 121 50 164 111 222 29 28 49 55 46 60 -4 6 -39 11 -79 12 -127 5
-219 7 -221 5z"/>
</g>
</svg>
