<svg preserveAspectRatio="xMidYMid meet" data-bbox="0 0 1731.152 732.855" xmlns="http://www.w3.org/2000/svg" viewBox="0 0 1734 734" fill-rule="evenodd" clip-rule="evenodd" stroke-linejoin="round" stroke-miterlimit="1.414" data-type="ugc" role="presentation" aria-hidden="true" width="1734" height="734">
    <g>
        <path d="M111.525 448.276c24.404 0 42.313 7.151 53.728 21.452 11.415 14.301 17.122 33.26 17.122 56.876v115.721c0 3.411-1.181 6.232-3.542 8.463-2.362 2.23-5.117 3.345-8.266 3.345-3.412 0-6.232-1.115-8.463-3.345-2.23-2.231-3.346-5.052-3.346-8.463v-114.54c0-17.056-4.264-30.898-12.792-41.526-8.528-10.627-21.714-15.941-39.557-15.941-11.284 0-21.977 2.624-32.079 7.872-10.103 5.249-18.303 12.268-24.601 21.058-6.298 8.791-9.447 18.303-9.447 28.537v114.54c0 3.411-1.115 6.232-3.345 8.463-2.231 2.23-5.052 3.345-8.463 3.345-3.411 0-6.232-1.115-8.462-3.345-2.231-2.231-3.346-5.052-3.346-8.463V465.989c0-3.412 1.115-6.233 3.346-8.463 2.23-2.23 5.051-3.346 8.462-3.346 3.411 0 6.232 1.116 8.463 3.346 2.23 2.23 3.345 5.051 3.345 8.463v21.648c7.085-11.283 17.254-20.664 30.505-28.143 13.252-7.479 26.831-11.218 40.738-11.218z" fill-rule="nonzero"></path>
        <path d="M414.21 541.955c0 3.149-1.181 5.838-3.542 8.069-2.362 2.23-5.117 3.346-8.266 3.346H253.618c0 15.744 3.215 29.848 9.644 42.312 6.428 12.465 15.613 22.305 27.552 29.521 11.94 7.216 26.044 10.824 42.313 10.824 12.595 0 23.879-2.624 33.85-7.872 9.972-5.248 17.975-11.939 24.01-20.074 2.887-2.361 5.642-3.542 8.266-3.542 2.624 0 4.986 1.049 7.085 3.149 2.099 2.099 3.149 4.46 3.149 7.085 0 2.886-1.312 5.641-3.936 8.265-8.397 10.234-18.959 18.631-31.686 25.191-12.726 6.56-26.175 9.84-40.344 9.84-20.206 0-38.049-4.329-53.531-12.989-15.482-8.659-27.553-20.795-36.212-36.408-8.659-15.614-12.989-33.654-12.989-54.122 0-21.517 4.264-40.344 12.792-56.482 8.528-16.138 19.877-28.471 34.047-37 14.17-8.528 29.258-12.792 45.265-12.792 15.745 0 30.505 3.674 44.281 11.021 13.776 7.348 24.994 18.106 33.654 32.276 8.659 14.17 13.12 30.964 13.382 50.382zm-91.317-70.85c-15.219 0-29.324 5.249-42.313 15.745-12.989 10.496-21.32 25.584-24.994 45.265h134.221v-3.149c-1.312-11.808-5.249-22.108-11.809-30.898-6.56-8.791-14.76-15.482-24.6-20.074-9.84-4.592-20.009-6.889-30.505-6.889z" fill-rule="nonzero"></path>
        <path d="M627.938 452.999c3.412 0 6.232 1.181 8.463 3.543 2.23 2.362 3.346 5.248 3.346 8.659v177.124c0 3.411-1.116 6.232-3.346 8.463-2.231 2.23-5.051 3.345-8.463 3.345-3.411 0-6.232-1.115-8.462-3.345-2.231-2.231-3.346-5.052-3.346-8.463v-26.372c-6.56 11.809-16.4 21.78-29.521 29.915-13.12 8.134-27.421 12.201-42.903 12.201-17.581 0-33.391-4.592-47.43-13.776-14.038-9.184-25.059-21.78-33.063-37.786-8.003-16.007-12.005-33.982-12.005-53.925 0-19.942 4.067-37.852 12.202-53.727 8.135-15.876 19.221-28.274 33.26-37.196 14.039-8.922 29.586-13.383 46.643-13.383 15.744 0 30.176 3.805 43.296 11.415 13.121 7.61 22.961 17.581 29.521 29.914v-24.404c0-3.411 1.115-6.297 3.346-8.659 2.23-2.362 5.051-3.543 8.462-3.543zm-81.87 183.028c13.645 0 25.912-3.608 36.802-10.824 10.89-7.216 19.418-17.187 25.585-29.914 6.166-12.727 9.25-26.962 9.25-42.707 0-15.219-3.084-29.127-9.25-41.722-6.167-12.596-14.695-22.501-25.585-29.718-10.89-7.216-23.157-10.824-36.802-10.824s-25.913 3.543-36.803 10.628c-10.889 7.085-19.418 16.859-25.584 29.323-6.167 12.465-9.25 26.569-9.25 42.313 0 15.745 3.018 29.98 9.053 42.707 6.035 12.727 14.498 22.698 25.388 29.914 10.89 7.216 23.288 10.824 37.196 10.824z" fill-rule="nonzero"></path>
        <path d="M795.616 448.276c5.248 0 9.971 1.05 14.169 3.149 4.199 2.099 6.298 5.248 6.298 9.447 0 3.673-1.049 6.625-3.149 8.856-2.099 2.23-4.592 3.345-7.478 3.345-1.312 0-3.871-.656-7.676-1.968-3.805-1.312-7.413-1.968-10.824-1.968-9.709 0-19.352 3.74-28.93 11.218-9.578 7.479-17.45 17.122-23.617 28.93-6.166 11.809-9.249 23.748-9.249 35.819v97.221c0 3.411-1.116 6.232-3.346 8.463-2.231 2.23-5.051 3.345-8.463 3.345-3.411 0-6.232-1.115-8.462-3.345-2.231-2.231-3.346-5.052-3.346-8.463V465.989c0-3.412 1.115-6.233 3.346-8.463 2.23-2.23 5.051-3.346 8.462-3.346 3.412 0 6.232 1.116 8.463 3.346 2.23 2.23 3.346 5.051 3.346 8.463v34.637c6.035-14.957 15.154-27.356 27.355-37.196 12.202-9.84 26.569-14.891 43.101-15.154z" fill-rule="nonzero"></path>
        <path d="M948.729 448.276c17.319 0 33.063 4.461 47.233 13.383 14.17 8.922 25.257 21.32 33.26 37.196 8.003 15.875 12.005 33.785 12.005 53.727 0 19.681-4.002 37.59-12.005 53.728-8.003 16.138-19.024 28.799-33.063 37.983-14.039 9.184-29.717 13.776-47.036 13.776-14.957 0-28.799-3.739-41.526-11.217-12.727-7.479-23.026-17.385-30.898-29.718v25.978c0 3.412-1.115 6.298-3.346 8.66-2.23 2.361-5.051 3.542-8.462 3.542-3.412 0-6.233-1.181-8.463-3.542-2.23-2.362-3.346-5.248-3.346-8.66V375.065c0-3.411 1.116-6.232 3.346-8.463 2.23-2.23 5.051-3.345 8.463-3.345 3.411 0 6.232 1.115 8.462 3.345 2.231 2.231 3.346 5.052 3.346 8.463v116.114c7.085-12.857 17.056-23.222 29.914-31.095 12.858-7.872 26.897-11.808 42.116-11.808zm-1.968 187.751c13.645 0 25.913-3.673 36.802-11.021 10.89-7.347 19.418-17.384 25.585-30.111 6.167-12.726 9.25-26.831 9.25-42.313 0-15.744-3.083-29.848-9.25-42.313-6.167-12.464-14.695-22.238-25.585-29.323-10.889-7.085-23.157-10.628-36.802-10.628-13.907 0-26.372 3.477-37.393 10.431-11.021 6.954-19.549 16.728-25.584 29.324-6.036 12.595-9.053 26.765-9.053 42.509 0 15.745 3.083 29.98 9.25 42.707 6.166 12.727 14.694 22.698 25.584 29.914 10.89 7.216 23.289 10.824 37.196 10.824z" fill-rule="nonzero"></path>
        <path d="M1240.39 454.18c3.411 0 6.232 1.116 8.462 3.346 2.231 2.23 3.346 5.051 3.346 8.463v110.997c0 25.716-7.216 45.462-21.648 59.238-14.433 13.776-34.375 20.665-59.829 20.665-25.191 0-44.937-6.889-59.238-20.665-14.301-13.776-21.451-33.522-21.451-59.238V465.989c0-3.412 1.115-6.233 3.345-8.463 2.231-2.23 5.052-3.346 8.463-3.346 3.411 0 6.232 1.116 8.462 3.346 2.231 2.23 3.346 5.051 3.346 8.463v110.997c0 18.893 4.986 33.26 14.957 43.1 9.972 9.84 24.01 14.761 42.116 14.761 18.369 0 32.604-4.921 42.707-14.761 10.102-9.84 15.154-24.207 15.154-43.1V465.989c0-3.412 1.115-6.233 3.345-8.463 2.231-2.23 5.052-3.346 8.463-3.346z" fill-rule="nonzero"></path>
        <path d="M1463.96 449.457c3.412 0 6.233 1.115 8.463 3.346 2.23 2.23 3.346 5.051 3.346 8.462v173.582c0 20.73-4.068 38.442-12.202 53.137-8.135 14.694-19.418 25.847-33.85 33.456-14.433 7.61-30.702 11.415-48.808 11.415-11.021 0-21.32-1.181-30.898-3.542-9.578-2.362-17.516-5.511-23.813-9.447-5.511-3.411-8.266-7.216-8.266-11.415 0-.525.262-1.837.787-3.936.787-2.624 2.099-4.592 3.936-5.904 1.837-1.312 3.805-1.968 5.904-1.968 1.575 0 3.149.394 4.723 1.181 16.794 9.184 32.801 13.776 48.021 13.776 21.779 0 39.033-6.822 51.759-20.467 12.727-13.646 19.09-32.276 19.09-55.893v-13.776c-6.56 11.021-16.007 19.877-28.34 26.568-12.333 6.692-25.715 10.037-40.148 10.037-22.829 0-40.148-6.822-51.956-20.467s-17.712-32.145-17.712-55.499V461.265c0-3.411 1.115-6.232 3.345-8.462 2.231-2.231 5.052-3.346 8.463-3.346 3.411 0 6.232 1.115 8.463 3.346 2.23 2.23 3.345 5.051 3.345 8.462v117.296c0 18.893 4.133 33.194 12.399 42.903 8.266 9.709 21.189 14.563 38.77 14.563 10.759 0 21.058-2.689 30.899-8.069 9.84-5.379 17.712-12.464 23.616-21.254 5.904-8.791 8.856-18.172 8.856-28.143V461.265c0-3.411 1.115-6.232 3.346-8.462 2.23-2.231 5.051-3.346 8.462-3.346z" fill-rule="nonzero"></path>
        <path fill="#486f50" d="M313.426 156.713c0 86.55-70.163 156.713-156.713 156.713S0 243.263 0 156.713 70.163 0 156.713 0s156.713 70.163 156.713 156.713z"></path>
        <path fill="#92be9b" d="M667.834 156.713c0 86.55-70.163 156.713-156.713 156.713s-156.713-70.163-156.713-156.713S424.571 0 511.121 0s156.713 70.163 156.713 156.713z"></path>
        <path fill="#b7d7c3" d="M1022.245 156.713c0 86.55-70.162 156.712-156.712 156.712-86.55 0-156.712-70.162-156.712-156.712 0-86.55 70.162-156.712 156.712-156.712 86.55 0 156.712 70.162 156.712 156.712z"></path>
        <path fill="#e3c44f" d="M1376.652 156.713c0 86.55-70.162 156.712-156.712 156.712-86.55 0-156.712-70.162-156.712-156.712 0-86.55 70.162-156.712 156.712-156.712 86.55 0 156.712 70.162 156.712 156.712z"></path>
        <path fill="#b79244" d="M1731.152 156.713c0 86.55-70.162 156.712-156.712 156.712-86.55 0-156.712-70.162-156.712-156.712 0-86.55 70.162-156.712 156.712-156.712 86.55 0 156.712 70.162 156.712 156.712z"></path>
    </g>
</svg>
